#!OML:ASF I:\Actors\actors\Patient Classification 1\Patient 1\Session 1\Subject1.ASF
:FULLY-SPECIFIED
:DEGREES
845
root 0.80004 17.4983 9.55642 10.9335 -11.6136 -8.73418
lowerback -1.31006 -0.477222 7.98336
upperback -11.2667 0.045975 4.13563
thorax -11.4318 -0.529162 0.0424649
lowerneck -8.12015 9.58214 10.0524
upperneck 6.43937 12.9538 -12.9105
head 4.77261 6.03907 -4.62533
rclavicle -2.64384e-014 7.59357e-014
rhumerus 79.7574 45.3296 -19.714
rradius 98.9136
rwrist 26.536
rhand -15.6432 -42.0063
rfingers 7.12502
rthumb 10.5443 -71.7218
lclavicle -2.64384e-014 7.59357e-014
lhumerus 3.65081 25.145 77.0658
lradius 107.555
lwrist 104.58
lhand -30.7474 -4.71073
lfingers 7.12502
lthumb -4.03925 25.2307
rfemur -5.1572 24.7623 22.7347
rtibia 2.48538
rfoot -11.6899 -18.6751
rtoes -5.2434
lfemur 12.2398 -47.0976 -18.8317
ltibia -4.67828
lfoot -46.3245 57.9985
ltoes 25.5224
846
root 0.803554 17.497 9.5555 10.9535 -11.6807 -8.7395
lowerback -1.29877 -0.362211 8.09929
upperback -11.2071 0.191562 3.98005
thorax -11.361 -0.475842 -0.20531
lowerneck -8.1041 9.47195 10.1142
upperneck 6.42456 12.7823 -12.7989
head 4.74127 5.96345 -4.61958
rclavicle 1.00386e-014 8.74653e-015
rhumerus 80.7067 45.2136 -20.1716
rradius 98.8823
rwrist 25.7809
rhand -14.9772 -42.173
rfingers 7.12502
rthumb 11.1868 -71.8548
lclavicle 1.00386e-014 8.74653e-015
lhumerus 3.89001 24.8398 77.3118
lradius 107.603
lwrist 104.668
lhand -30.7036 -4.58643
lfingers 7.12502
lthumb -3.9969 25.3558
rfemur -5.19647 24.8218 22.7143
rtibia 2.5096
rfoot -11.6703 -18.6698
rtoes -5.29744
lfemur 12.3132 -47.241 -18.9248
ltibia -4.66595
lfoot -46.7574 58.0154
ltoes 25.7948
847
root 0.80694 17.4955 9.55414 10.9783 -11.6823 -8.78477
lowerback -1.2455 -0.25437 8.26678
upperback -11.173 0.337598 3.82943
thorax -11.346 -0.428514 -0.47392
lowerneck -7.99936 9.33108 10.1349
upperneck 6.28227 12.5755 -12.7551
head 4.65471 5.87188 -4.6375
rclavicle -2.127e-014 2.14687e-014
rhumerus 81.4303 45.1179 -20.657
rradius 98.9673
rwrist 24.7061
rhand -14.3074 -42.6644
rfingers 7.12502
rthumb 11.8327 -72.3101
lclavicle -2.127e-014 2.14687e-014
lhumerus 4.04816 24.518 77.4337
lradius 107.636
lwrist 104.83
lhand -30.8557 -4.39164
lfingers 7.12502
lthumb -4.14383 25.5478
rfemur -5.20664 24.8472 22.7524
rtibia 2.48987
rfoot -11.6218 -18.6929
rtoes -5.4748
lfemur 12.328 -47.2904 -18.8988
ltibia -4.67207
lfoot -46.9756 57.9664
ltoes 25.9844
848
root 0.809976 17.4958 9.55204 11.0124 -11.6552 -8.85006
lowerback -1.19139 -0.231904 8.43232
upperback -11.1686 0.378695 3.78126
thorax -11.375 -0.427914 -0.619804
lowerneck -7.70575 9.22484 9.98805
upperneck 6.09683 12.4478 -12.7205
head 4.5231 5.82245 -4.63242
rclavicle -1.30204e-014 -5.4467e-014
rhumerus 82.3145 45.2214 -21.0235
rradius 99.0322
rwrist 24.0618
rhand -13.9152 -43.0713
rfingers 7.12502
rthumb 12.2109 -72.6949
lclavicle -1.30204e-014 -5.4467e-014
lhumerus 4.05254 24.4294 77.4512
lradius 107.651
lwrist 104.854
lhand -30.7376 -4.28822
lfingers 7.12502
lthumb -4.02976 25.6534
rfemur -5.23866 24.9261 22.8112
rtibia 2.50904
rfoot -11.6587 -18.756
rtoes -5.29402
lfemur 12.263 -47.2599 -18.7668
ltibia -4.69428
lfoot -46.9033 57.9603
ltoes 25.9227
849
root 0.812723 17.4976 9.5503 11.0279 -11.6282 -8.8772
lowerback -1.15241 -0.215863 8.562
upperback -11.1392 0.40512 3.72522
thorax -11.3652 -0.429868 -0.754611
lowerneck -7.47021 9.08651 9.67572
upperneck 5.97224 12.2792 -12.5374
head 4.39487 5.75235 -4.5565
rclavicle -3.27995e-014 4.65156e-014
rhumerus 83.1266 45.2568 -21.4048
rradius 98.9959
rwrist 23.977
rhand -13.8283 -43.3981
rfingers 7.12502
rthumb 12.2946 -73.0166
lclavicle -3.27995e-014 4.65156e-014
lhumerus 4.12521 24.3374 77.6923
lradius 107.715
lwrist 104.714
lhand -30.5727 -4.29351
lfingers 7.12502
lthumb -3.87048 25.6511
rfemur -5.25143 25.0408 22.8273
rtibia 2.52579
rfoot -11.7755 -18.8468
rtoes -4.52714
lfemur 12.1845 -47.1941 -18.6675
ltibia -4.7074
lfoot -46.6629 57.9751
ltoes 25.6929
850
root 0.814529 17.4986 9.54944 11.0196 -11.5973 -8.80892
lowerback -1.13879 -0.211924 8.58607
upperback -11.0877 0.403307 3.64674
thorax -11.3128 -0.43502 -0.854706
lowerneck -7.25312 8.92226 9.29585
upperneck 5.78893 12.0725 -12.3428
head 4.24404 5.6626 -4.46988
rclavicle 2.41523e-014 -1.35174e-014
rhumerus 83.7126 45.3167 -21.9782
rradius 98.9156
rwrist 23.8993
rhand -13.6512 -43.5425
rfingers 7.12502
rthumb 12.4654 -73.1507
lclavicle 2.41523e-014 -1.35174e-014
lhumerus 4.20048 24.3385 78.0251
lradius 107.855
lwrist 104.618
lhand -30.6065 -4.2568
lfingers 7.12502
lthumb -3.90314 25.6872
rfemur -5.24168 25.0655 22.7411
rtibia 2.4905
rfoot -11.7826 -18.9252
rtoes -4.39441
lfemur 12.1168 -47.1638 -18.7008
ltibia -4.67974
lfoot -46.4798 57.9575
ltoes 25.5837
851
root 0.815065 17.498 9.54906 10.9979 -11.5759 -8.74869
lowerback -1.1316 -0.210453 8.60951
upperback -11.0343 0.396573 3.56149
thorax -11.2545 -0.44265 -0.961438
lowerneck -7.10117 8.81189 9.0503
upperneck 5.72046 11.9414 -12.2479
head 4.16282 5.60388 -4.42258
rclavicle -2.64384e-014 3.73715e-014
rhumerus 84.0214 45.5634 -22.811
rradius 98.8389
rwrist 23.4784
rhand -13.1955 -43.5147
rfingers 7.12502
rthumb 12.9047 -73.0957
lclavicle -2.64384e-014 3.73715e-014
lhumerus 4.16711 24.4243 78.1867
lradius 108.056
lwrist 104.649
lhand -30.6265 -4.19386
lfingers 7.12502
lthumb -3.92251 25.7498
rfemur -5.23448 25.0196 22.6715
rtibia 2.47051
rfoot -11.698 -18.9456
rtoes -5.08062
lfemur 12.1312 -47.2368 -18.796
ltibia -4.65722
lfoot -46.5599 57.9712
ltoes 25.6409
852
root 0.815106 17.4972 9.54885 10.9598 -11.5983 -8.72226
lowerback -1.10012 -0.185733 8.66705
upperback -10.9682 0.424878 3.4743
thorax -11.1942 -0.436081 -1.09211
lowerneck -6.92745 8.73538 9.03701
upperneck 5.6607 11.8633 -12.4397
head 4.11949 5.56467 -4.4946
rclavicle 1.73937e-014 -1.51076e-014
rhumerus 84.2035 45.9141 -23.6586
rradius 98.8374
rwrist 22.3915
rhand -12.455 -43.8324
rfingers 7.12502
rthumb 13.6185 -73.3669
lclavicle 1.73937e-014 -1.51076e-014
lhumerus 4.13793 24.468 78.3392
lradius 108.219
lwrist 104.673
lhand -30.5727 -4.24029
lfingers 7.12502
lthumb -3.87056 25.7043
rfemur -5.22779 25.0144 22.6385
rtibia 2.49813
rfoot -11.686 -18.9221
rtoes -5.49027
lfemur 12.2644 -47.4104 -18.9598
ltibia -4.64921
lfoot -46.9611 58.0376
ltoes 25.8323
853
root 0.815357 17.4966 9.54711 10.9277 -11.6203 -8.71465
lowerback -1.07903 -0.175893 8.72908
upperback -10.8852 0.43165 3.3978
thorax -11.11 -0.438543 -1.21237
lowerneck -6.73735 8.68044 9.06232
upperneck 5.59998 11.8157 -12.6751
head 4.08147 5.54027 -4.58386
rclavicle 2.8625e-014 -2.10712e-014
rhumerus 84.3811 46.3518 -24.4931
rradius 98.8724
rwrist 20.398
rhand -11.4748 -44.3839
rfingers 7.12502
rthumb 14.5631 -73.8526
lclavicle 2.8625e-014 -2.10712e-014
lhumerus 4.24659 24.4903 78.5435
lradius 108.196
lwrist 104.653
lhand -30.4839 -4.35976
lfingers 7.12502
lthumb -3.7848 25.5864
rfemur -5.22849 24.9884 22.6254
rtibia 2.53515
rfoot -11.7036 -18.865
rtoes -5.45593
lfemur 12.3472 -47.4921 -19.0546
ltibia -4.62863
lfoot -47.1818 58.0573
ltoes 25.9626
854
root 0.815715 17.4955 9.54349 10.9019 -11.6219 -8.78892
lowerback -1.04821 -0.168448 8.87205
upperback -10.7967 0.44035 3.32418
thorax -11.0277 -0.447146 -1.37396
lowerneck -6.67183 8.65019 8.98658
upperneck 5.75004 11.8002 -12.662
head 4.1086 5.53098 -4.57023
rclavicle 2.13694e-014 -1.90833e-014
rhumerus 84.4085 46.9264 -25.3993
rradius 98.8268
rwrist 17.871
rhand -10.7334 -44.759
rfingers 7.12502
rthumb 15.2773 -74.1748
lclavicle 2.13694e-014 -1.90833e-014
lhumerus 4.42487 24.4601 78.7677
lradius 108.079
lwrist 104.635
lhand -30.4505 -4.3586
lfingers 7.12502
lthumb -3.75251 25.5881
rfemur -5.2268 24.8898 22.7165
rtibia 2.5756
rfoot -11.6817 -18.7479
rtoes -5.37514
lfemur 12.368 -47.412 -18.9719
ltibia -4.63231
lfoot -47.0387 58.0095
ltoes 25.9515
855
root 0.814483 17.4941 9.5392 10.8701 -11.657 -8.87482
lowerback -0.976479 -0.10657 8.99681
upperback -10.738 0.525672 3.20864
thorax -10.9965 -0.421206 -1.57614
lowerneck -6.60532 8.5716 8.97717
upperneck 5.96844 11.7244 -12.6989
head 4.15663 5.49011 -4.58702
rclavicle -4.17945e-014 1.19271e-014
rhumerus 84.0194 47.5848 -26.3987
rradius 98.7444
rwrist 15.5478
rhand -10.4367 -44.9506
rfingers 7.12502
rthumb 15.5631 -74.3444
lclavicle -4.17945e-014 1.19271e-014
lhumerus 4.50584 24.2907 78.994
lradius 108.022
lwrist 104.653
lhand -30.4002 -4.31153
lfingers 7.12502
lthumb -3.70395 25.636
rfemur -5.22631 24.8688 22.8283
rtibia 2.63059
rfoot -11.6708 -18.6713
rtoes -5.35904
lfemur 12.4091 -47.2984 -18.8795
ltibia -4.65617
lfoot -47.0334 57.8971
ltoes 26.1301
